<svg width="565" height="276" viewBox="0 0 565 276" fill="none" xmlns="http://www.w3.org/2000/svg">
<mask id="mask0_2_136" style="mask-type:alpha" maskUnits="userSpaceOnUse" x="0" y="0" width="565" height="565">
<circle cx="282.5" cy="282.5" r="282.5" fill="#C4C4C4"/>
</mask>
<g mask="url(#mask0_2_136)">
<path d="M319.259 -444.372L-497.796 372.684M395.779 -367.853L-421.277 449.203M472.298 -291.334L-344.758 525.722M548.817 -214.814L-268.238 602.241M625.337 -138.295L-191.719 678.761M344.766 -418.866L-472.29 398.19M421.285 -342.346L-395.77 474.709M497.804 -265.827L-319.251 551.228M574.324 -189.308L-242.732 627.748M650.843 -112.789L-166.213 704.267M370.272 -393.359L-446.783 423.696M446.792 -316.84L-370.264 500.216M523.311 -240.321L-293.745 576.735M599.83 -163.801L-217.225 653.254M676.349 -87.2821L-140.706 729.773M701.431 -62.2009L-115.625 754.855M777.95 14.3184L-39.1057 831.374M854.469 90.8377L37.4135 907.893M930.988 167.357L113.933 984.413M1007.51 243.876L190.452 1060.93M726.937 -36.6944L-90.1185 780.361M803.456 39.8248L-13.5992 856.88M879.976 116.344L62.92 933.4M956.495 192.863L139.439 1009.92M1033.01 269.383L215.958 1086.44M752.444 -11.188L-64.6121 805.868M828.963 65.3312L11.9072 882.387M905.482 141.85L88.4264 958.906M982.001 218.37L164.946 1035.43M1058.52 294.889L241.465 1111.94" stroke="#D84432" stroke-width="1.5"/>
</g>
</svg>
